HIERARCHY
ROOT Hips
{
    OFFSET   0.000000   0.000000   0.000000
    CHANNELS 6 Xposition Yposition Zposition Zrotation Xrotation Yrotation
    JOINT Chest
    {
        OFFSET   0.000000   8.007230   0.000000
        CHANNELS 3 Zrotation Xrotation Yrotation
        JOINT Chest2
        {
            OFFSET   0.000000  22.077100   0.000000
            CHANNELS 3 Zrotation Xrotation Yrotation
            JOINT Neck
            {
                OFFSET   0.000000  23.254700   0.000000
                CHANNELS 3 Zrotation Xrotation Yrotation
                JOINT Head
                {
                    OFFSET   0.000010  14.370000   1.956610
                    CHANNELS 3 Zrotation Xrotation Yrotation
                    End Site
                    {
                        OFFSET   0.000000  19.566000   0.000000
                    }
                }
            }
            JOINT LeftCollar
            {
                OFFSET   3.911900  19.017000  -0.467063
                CHANNELS 3 Zrotation Xrotation Yrotation
                JOINT LeftShoulder
                {
                    OFFSET  10.383700   0.000000   0.000000
                    CHANNELS 3 Zrotation Xrotation Yrotation
                    JOINT LeftElbow
                    {
                        OFFSET  26.662100   0.001671   0.000522
                        CHANNELS 3 Zrotation Xrotation Yrotation
                        JOINT LeftWrist
                        {
                            OFFSET  28.869000   0.000037  -0.000114
                            CHANNELS 3 Zrotation Xrotation Yrotation
                            JOINT LeftFinger0
                            {
                                OFFSET   2.044650  -2.323450   3.252850
                                CHANNELS 3 Zrotation Xrotation Yrotation
                                JOINT LeftFinger01
                                {
                                    OFFSET   3.088140   0.000000   0.000000
                                    CHANNELS 3 Zrotation Xrotation Yrotation
                                    JOINT LeftFinger02
                                    {
                                        OFFSET   2.639460   0.000000   0.000000
                                        CHANNELS 3 Zrotation Xrotation Yrotation
                                        End Site
                                        {
                                            OFFSET   2.582190   0.000000   0.000000
                                        }
                                    }
                                }
                            }
                            JOINT LeftFinger1
                            {
                                OFFSET   8.364480   0.000000   3.252850
                                CHANNELS 3 Zrotation Xrotation Yrotation
                                JOINT LeftFinger11
                                {
                                    OFFSET   4.646930   0.000000   0.000000
                                    CHANNELS 3 Zrotation Xrotation Yrotation
                                    JOINT LeftFinger12
                                    {
                                        OFFSET   2.323470   0.000000   0.000000
                                        CHANNELS 3 Zrotation Xrotation Yrotation
                                        End Site
                                        {
                                            OFFSET   2.273050   0.000000   0.000000
                                        }
                                    }
                                }
                            }
                            JOINT LeftFinger2
                            {
                                OFFSET   8.364490   0.000016   1.078090
                                CHANNELS 3 Zrotation Xrotation Yrotation
                                JOINT LeftFinger21
                                {
                                    OFFSET   5.111620   0.000000   0.000000
                                    CHANNELS 3 Zrotation Xrotation Yrotation
                                    JOINT LeftFinger22
                                    {
                                        OFFSET   2.788150   0.000013   0.000000
                                        CHANNELS 3 Zrotation Xrotation Yrotation
                                        End Site
                                        {
                                            OFFSET   2.727660   0.000000   0.000000
                                        }
                                    }
                                }
                            }
                            JOINT LeftFinger3
                            {
                                OFFSET   7.899780   0.000016  -1.078090
                                CHANNELS 3 Zrotation Xrotation Yrotation
                                JOINT LeftFinger31
                                {
                                    OFFSET   4.646930   0.000000   0.000000
                                    CHANNELS 3 Zrotation Xrotation Yrotation
                                    JOINT LeftFinger32
                                    {
                                        OFFSET   2.323470   0.000000   0.000000
                                        CHANNELS 3 Zrotation Xrotation Yrotation
                                        End Site
                                        {
                                            OFFSET   2.273050   0.000000   0.000000
                                        }
                                    }
                                }
                            }
                            JOINT LeftFinger4
                            {
                                OFFSET   7.435080   0.000000  -3.252850
                                CHANNELS 3 Zrotation Xrotation Yrotation
                                JOINT LeftFinger41
                                {
                                    OFFSET   3.717550   0.000000   0.000000
                                    CHANNELS 3 Zrotation Xrotation Yrotation
                                    JOINT LeftFinger42
                                    {
                                        OFFSET   1.858760   0.000000   0.000000
                                        CHANNELS 3 Zrotation Xrotation Yrotation
                                        End Site
                                        {
                                            OFFSET   1.818440   0.000000   0.000000
                                        }
                                    }
                                }
                            }
                        }
                    }
                }
            }
            JOINT RightCollar
            {
                OFFSET  -3.911900  19.017000  -0.467064
                CHANNELS 3 Zrotation Xrotation Yrotation
                JOINT RightShoulder
                {
                    OFFSET -10.383700   0.000000   0.000000
                    CHANNELS 3 Zrotation Xrotation Yrotation
                    JOINT RightElbow
                    {
                        OFFSET -26.662100   0.001633   0.000260
                        CHANNELS 3 Zrotation Xrotation Yrotation
                        JOINT RightWrist
                        {
                            OFFSET -28.869000  -0.000045  -0.000080
                            CHANNELS 3 Zrotation Xrotation Yrotation
                            JOINT RightFinger0
                            {
                                OFFSET  -2.044660  -2.323490   3.252850
                                CHANNELS 3 Zrotation Xrotation Yrotation
                                JOINT RightFinger01
                                {
                                    OFFSET  -3.088140   0.000000   0.000000
                                    CHANNELS 3 Zrotation Xrotation Yrotation
                                    JOINT RightFinger02
                                    {
                                        OFFSET  -2.639450   0.000000   0.000000
                                        CHANNELS 3 Zrotation Xrotation Yrotation
                                        End Site
                                        {
                                            OFFSET  -2.582190   0.000000   0.000000
                                        }
                                    }
                                }
                            }
                            JOINT RightFinger1
                            {
                                OFFSET  -8.364480   0.000000   3.252850
                                CHANNELS 3 Zrotation Xrotation Yrotation
                                JOINT RightFinger11
                                {
                                    OFFSET  -4.646920   0.000000   0.000000
                                    CHANNELS 3 Zrotation Xrotation Yrotation
                                    JOINT RightFinger12
                                    {
                                        OFFSET  -2.323470   0.000000   0.000000
                                        CHANNELS 3 Zrotation Xrotation Yrotation
                                        End Site
                                        {
                                            OFFSET  -2.273050   0.000000   0.000000
                                        }
                                    }
                                }
                            }
                            JOINT RightFinger2
                            {
                                OFFSET  -8.364480   0.000000   1.078090
                                CHANNELS 3 Zrotation Xrotation Yrotation
                                JOINT RightFinger21
                                {
                                    OFFSET  -5.111610   0.000000   0.000000
                                    CHANNELS 3 Zrotation Xrotation Yrotation
                                    JOINT RightFinger22
                                    {
                                        OFFSET  -2.788160   0.000000   0.000000
                                        CHANNELS 3 Zrotation Xrotation Yrotation
                                        End Site
                                        {
                                            OFFSET  -2.727660   0.000000   0.000000
                                        }
                                    }
                                }
                            }
                            JOINT RightFinger3
                            {
                                OFFSET  -7.899780   0.000000  -1.078090
                                CHANNELS 3 Zrotation Xrotation Yrotation
                                JOINT RightFinger31
                                {
                                    OFFSET  -4.646930   0.000000   0.000000
                                    CHANNELS 3 Zrotation Xrotation Yrotation
                                    JOINT RightFinger32
                                    {
                                        OFFSET  -2.323470   0.000000   0.000000
                                        CHANNELS 3 Zrotation Xrotation Yrotation
                                        End Site
                                        {
                                            OFFSET  -2.273050   0.000000   0.000000
                                        }
                                    }
                                }
                            }
                            JOINT RightFinger4
                            {
                                OFFSET  -7.435090   0.000000  -3.252850
                                CHANNELS 3 Zrotation Xrotation Yrotation
                                JOINT RightFinger41
                                {
                                    OFFSET  -3.717550   0.000000   0.000000
                                    CHANNELS 3 Zrotation Xrotation Yrotation
                                    JOINT RightFinger42
                                    {
                                        OFFSET  -1.858760   0.000000   0.000000
                                        CHANNELS 3 Zrotation Xrotation Yrotation
                                        End Site
                                        {
                                            OFFSET  -1.818440   0.000000   0.000000
                                        }
                                    }
                                }
                            }
                        }
                    }
                }
            }
        }
    }
    JOINT LeftHip
    {
        OFFSET   9.782990   0.000000   0.000000
        CHANNELS 3 Zrotation Xrotation Yrotation
        JOINT LeftKnee
        {
            OFFSET  -0.000063 -41.789100   0.001657
            CHANNELS 3 Zrotation Xrotation Yrotation
            JOINT LeftAnkle
            {
                OFFSET   0.000078 -41.133200  -0.000113
                CHANNELS 3 Zrotation Xrotation Yrotation
                JOINT LeftToe
                {
                    OFFSET   0.000000  -6.358970  14.674500
                    CHANNELS 3 Zrotation Xrotation Yrotation
                    End Site
                    {
                        OFFSET   0.000000   0.000000   3.913200
                    }
                }
            }
        }
    }
    JOINT RightHip
    {
        OFFSET  -9.782990   0.000000   0.000000
        CHANNELS 3 Zrotation Xrotation Yrotation
        JOINT RightKnee
        {
            OFFSET   0.000053 -41.789200   0.000277
            CHANNELS 3 Zrotation Xrotation Yrotation
            JOINT RightAnkle
            {
                OFFSET   0.000030 -41.133200  -0.000150
                CHANNELS 3 Zrotation Xrotation Yrotation
                JOINT RightToe
                {
                    OFFSET   0.000000  -6.358960  14.674500
                    CHANNELS 3 Zrotation Xrotation Yrotation
                    End Site
                    {
                        OFFSET   0.000000   0.000000   3.913200
                    }
                }
            }
        }
    }
}
MOTION
Frames: 4
Frame Time:   0.016667
  0.454367  89.490800   2.607890  -3.088290 -11.630600  -1.600820   1.113980   7.638190   0.618493   2.173290  15.286800   1.100370   2.204800  -0.797994   0.023142   3.624040  -1.611060  10.424000  -5.244970  -0.922388   1.568390 -71.365500  11.598300  -3.546420  -2.124730  -4.612580 -19.178900  15.076700  -1.540810   3.062220  37.642000  34.845800 -61.060800 -36.863100   0.001039   0.000855 -13.632900   0.005738   0.003221 -39.813200   5.410780  -6.454090 -32.824200  -0.008285  -0.001261 -23.062900  -0.005906  -0.005524 -29.391800  -3.742630   6.615630 -44.421700  -0.006336  -0.003825 -29.578400  -0.008544  -0.003253 -28.555300  -3.921820   7.163340 -43.158300  -0.008729  -0.002240 -28.743400  -0.004019  -0.001803 -40.111200  -5.279250   6.233270 -60.598200  -0.004208  -0.011575 -40.358400  -0.001891  -0.013029   9.737230   0.037841   8.568500  69.624800  10.374500  -2.744960  -2.018750  -7.520390  16.510700 -16.656100  -3.398190   2.995190 -35.365800  27.295900  57.998700  33.958400   0.001293  -0.002281  11.973200   0.002558  -0.001936  36.496000   8.270990  11.003200  30.513200  -0.002377  -0.000901  21.359300  -0.010088  -0.000351  29.938200   3.028280   5.237180  45.115300  -0.001120  -0.000456  30.046800  -0.002489   0.000269  29.135200   0.852387   1.523480  43.703400  -0.004602  -0.002709  29.117300  -0.003397  -0.001069  41.345200  -1.480710  -1.681490  62.030100  -0.005689  -0.002435  41.325700  -0.004097  -0.000382   4.339190  14.514600   4.647850   1.601770   0.053053   4.965980  -2.996570  -3.446080  -0.724655   0.000000   0.000000  -0.000000   2.416600  14.697000   0.728767  -0.023925   0.664987  -9.632880  -0.465406  -4.507040  -2.406530  -0.000000   0.000000   0.000000
  0.464056  89.490900   2.621110  -3.089960 -11.626000  -1.610870   1.113760   7.638300   0.613741   2.173490  15.286800   1.090760   2.188980  -0.789967   0.023153   3.597980  -1.595050  10.461900  -5.247890  -0.925820   1.584260 -71.388900  11.630600  -3.555140  -2.127650  -4.632220 -19.142900  15.061000  -1.524480   3.074260  37.645900  34.856200 -61.070000 -36.862600   0.001039   0.000850 -13.632500   0.005732   0.003217 -39.812900   5.411300  -6.454780 -32.824000  -0.008276  -0.001258 -23.062700  -0.005896  -0.005518 -29.391800  -3.742630   6.615980 -44.416900  -0.006325  -0.003822 -29.578400  -0.008540  -0.003239 -28.550500  -3.915370   7.154630 -43.164000  -0.008720  -0.002237 -28.747200  -0.004015  -0.001788 -40.107900  -5.272160   6.224830 -60.592100  -0.004186  -0.011576 -40.354300  -0.001893  -0.013021   9.743410   0.031790   8.570630  69.636700  10.370400  -2.755420  -2.014890  -7.528820  16.489500 -16.664600  -3.398120   2.984140 -35.354900  27.278300  57.996300  33.958300   0.001296  -0.002275  11.973100   0.002557  -0.001936  36.503100   8.276790  11.007900  30.519800  -0.002373  -0.000901  21.363900  -0.010091  -0.000348  29.941900   3.029440   5.240090  45.121100  -0.001119  -0.000456  30.050700  -0.002482   0.000269  29.135200   0.852386   1.524350  43.710200  -0.004599  -0.002708  29.117300  -0.003397  -0.001069  41.345200  -1.480660  -1.681450  62.040400  -0.005686  -0.002433  41.325700  -0.004097  -0.000381   4.333660  14.532000   4.648460   1.596740   0.027914   4.969310  -2.988520  -3.446450  -0.715549   0.000000   0.000000   0.000000   2.408270  14.705400   0.732960  -0.023944   0.658411  -9.619810  -0.456921  -4.505950  -2.411630  -0.000000   0.000000  -0.000000
  0.480756  89.490900   2.642550  -3.093370 -11.618300  -1.630050   1.113790   7.638430   0.604022   2.174890  15.286900   1.071050   2.163730  -0.778381   0.023182   3.556400  -1.571940  10.531300  -5.256360  -0.942394   1.613910 -71.434800  11.704700  -3.577120  -2.130860  -4.674630 -19.065200  15.044700  -1.495850   3.089610  37.654300  34.876200 -61.087500 -36.862100   0.001037   0.000838 -13.632000   0.005716   0.003207 -39.812600   5.411820  -6.455460 -32.823800  -0.008255  -0.001251 -23.062500  -0.005877  -0.005505 -29.391800  -3.742650   6.616330 -44.412100  -0.006297  -0.003814 -29.578400  -0.008530  -0.003202 -28.545900  -3.908940   7.142830 -43.176600  -0.008698  -0.002229 -28.755600  -0.004004  -0.001749 -40.100200  -5.262350   6.215910 -60.579300  -0.004131  -0.011577 -40.345800  -0.001899  -0.013001   9.755910   0.015898   8.579080  69.650000  10.362100  -2.774500  -2.007400  -7.543660  16.458600 -16.674600  -3.398020   2.973100 -35.346800  27.256700  58.000200  33.957800   0.001299  -0.002266  11.973000   0.002552  -0.001937  36.513200   8.288160  11.018500  30.529600  -0.002365  -0.000899  21.370700  -0.010096  -0.000344  29.947200   3.032910   5.247170  45.129400  -0.001117  -0.000453  30.056200  -0.002471   0.000270  29.135100   0.852383   1.528800  43.719700  -0.004594  -0.002705  29.117300  -0.003394  -0.001067  41.345300  -1.480560  -1.681340  62.050600  -0.005679  -0.002430  41.325700  -0.004094  -0.000380   4.325340  14.557500   4.649250   1.587690   0.002336   4.976710  -2.976490  -3.448990  -0.700339  -0.000000   0.000000   0.000000   2.394360  14.719800   0.739967  -0.022605   0.644626  -9.598160  -0.444318  -4.501650  -2.416720  -0.000000   0.000000  -0.000000
  0.495130  89.490900   2.658660  -3.097300 -11.610700  -1.650320   1.114480   7.638250   0.593218   2.177190  15.286300   1.049120   2.145600  -0.773319   0.023229   3.526600  -1.561770  10.596500  -5.264380  -0.974860   1.653180 -71.485200  11.804300  -3.609000  -2.124440  -4.721060 -18.971000  15.053400  -1.469490   3.091800  37.672700  34.904300 -61.111000 -36.863800   0.001029   0.000817 -13.633900   0.005689   0.003190 -39.813600   5.409130  -6.452390 -32.824300  -0.008227  -0.001245 -23.063000  -0.005856  -0.005485 -29.396800  -3.742700   6.614460 -44.419600  -0.006252  -0.003801 -29.583400  -0.008514  -0.003143 -28.550100  -3.909040   7.139090 -43.190700  -0.008663  -0.002217 -28.765000  -0.003987  -0.001690 -40.086800  -5.258600   6.215340 -60.558900  -0.004047  -0.011579 -40.332200  -0.001909  -0.012969   9.770980  -0.008229   8.593280  69.652300  10.349600  -2.793020  -1.997050  -7.559610  16.440200 -16.675800  -3.397950   2.979400 -35.344900  27.249300  58.017100  33.953500   0.001286  -0.002264  11.972800   0.002541  -0.001930  36.517500   8.302420  11.035200  30.535300  -0.002359  -0.000899  21.374700  -0.010102  -0.000344  29.949100   3.039690   5.258690  45.133100  -0.001115  -0.000445  30.058700  -0.002462   0.000276  29.134900   0.857701   1.540050  43.723500  -0.004589  -0.002701  29.117300  -0.003387  -0.001062  41.343200  -1.480400  -1.681190  62.050500  -0.005672  -0.002427  41.323600  -0.004088  -0.000382   4.319670  14.572100   4.649550   1.580390   0.001822   4.986170  -2.969880  -3.454960  -0.687362  -0.000000   0.000000  -0.000000   2.382430  14.732800   0.745828  -0.017119   0.622360  -9.580690  -0.438060  -4.489900  -2.416200  -0.000000   0.000000   0.000000
